<svg width="32" height="32" viewBox="0 0 32 32" fill="none" xmlns="http://www.w3.org/2000/svg">
<circle cx="16" cy="16" r="16" fill="#004489"/>
<g clip-path="url(#clip0_7018_176)">
<path d="M11.6507 22.75H8.38544V12.2346H11.6507V22.75ZM10.0161 10.8003C8.97213 10.8003 8.125 9.93512 8.125 8.89112C8.125 8.38957 8.32424 7.90855 8.6789 7.5539C9.03355 7.19924 9.51457 7 10.0161 7C10.5177 7 10.9987 7.19924 11.3534 7.5539C11.708 7.90855 11.9072 8.38957 11.9072 8.89112C11.9072 9.93512 11.0601 10.8003 10.0161 10.8003ZM23.8716 22.75H20.6136V17.6312C20.6136 16.4112 20.5889 14.8469 18.916 14.8469C17.2184 14.8469 16.9579 16.1721 16.9579 17.5435V22.75H13.696V12.2346H16.8274V13.669H16.873C17.3089 12.8427 18.3738 11.9708 19.9623 11.9708C23.2669 11.9708 23.8744 14.1471 23.8744 16.9737V22.75H23.8716Z" fill="white"/>
</g>
<defs>
<clipPath id="clip0_7018_176">
<rect width="18" height="18" fill="white" transform="translate(7 7)"/>
</clipPath>
</defs>
</svg>
