<svg width="32" height="32" viewBox="0 0 32 32" fill="none" xmlns="http://www.w3.org/2000/svg">
<circle cx="16" cy="16" r="16" fill="#004489"/>
<path d="M22.3602 12.6641C22.371 12.81 22.371 12.955 22.371 13.1C22.371 17.5375 18.9935 22.6508 12.821 22.6508C10.9193 22.6508 9.15268 22.1 7.66602 21.1433C7.93602 21.1741 8.19602 21.185 8.47685 21.185C9.98768 21.1886 11.4557 20.6834 12.6443 19.7508C11.9439 19.7381 11.2648 19.507 10.702 19.0897C10.1393 18.6725 9.72084 18.0899 9.50518 17.4233C9.71268 17.4541 9.92102 17.475 10.1393 17.475C10.4402 17.475 10.7427 17.4333 11.0235 17.3608C10.2633 17.2073 9.57974 16.7952 9.08903 16.1947C8.59832 15.5941 8.33076 14.8422 8.33185 14.0666V14.025C8.77935 14.2741 9.29852 14.43 9.84852 14.4508C9.38776 14.1446 9.00995 13.7291 8.7488 13.2414C8.48765 12.7538 8.35128 12.209 8.35185 11.6558C8.35185 11.0325 8.51768 10.4608 8.80852 9.96245C9.65196 11 10.7039 11.8488 11.8963 12.4538C13.0887 13.0589 14.3948 13.4068 15.7302 13.475C15.6785 13.225 15.6468 12.9658 15.6468 12.7058C15.6466 12.2649 15.7333 11.8283 15.9019 11.421C16.0705 11.0136 16.3178 10.6435 16.6295 10.3318C16.9412 10.02 17.3114 9.7728 17.7187 9.60419C18.1261 9.43558 18.5626 9.3489 19.0035 9.34912C19.9702 9.34912 20.8427 9.75412 21.456 10.4091C22.2075 10.2638 22.9281 9.98947 23.586 9.59829C23.3355 10.374 22.8108 11.0317 22.1102 11.4483C22.7767 11.3723 23.428 11.197 24.0427 10.9283C23.5836 11.5975 23.0148 12.1844 22.3602 12.6641Z" fill="white"/>
</svg>
