<svg width="32" height="32" viewBox="0 0 32 32" fill="none" xmlns="http://www.w3.org/2000/svg">
<circle cx="16" cy="16" r="16" fill="#004489"/>
<path d="M23.4564 12.9208C23.448 12.2897 23.3298 11.6648 23.1072 11.0741C22.9142 10.5759 22.6193 10.1235 22.2415 9.74566C21.8637 9.36785 21.4113 9.07301 20.913 8.87996C20.33 8.6611 19.714 8.54275 19.0914 8.52996C18.2897 8.49413 18.0355 8.48413 16.0005 8.48413C13.9655 8.48413 13.7047 8.48413 12.9089 8.52996C12.2865 8.54284 11.6708 8.66119 11.088 8.87996C10.5898 9.07287 10.1372 9.36767 9.75941 9.74549C9.38158 10.1233 9.08679 10.5758 8.89388 11.0741C8.67457 11.6567 8.55648 12.2726 8.54471 12.895C8.50888 13.6975 8.49805 13.9516 8.49805 15.9866C8.49805 18.0216 8.49805 18.2816 8.54471 19.0783C8.55721 19.7016 8.67471 20.3166 8.89388 20.9008C9.08711 21.3989 9.38213 21.8513 9.76008 22.2289C10.138 22.6066 10.5906 22.9013 11.0889 23.0941C11.6701 23.3218 12.2859 23.4486 12.9097 23.4691C13.7122 23.505 13.9664 23.5158 16.0014 23.5158C18.0364 23.5158 18.2972 23.5158 19.093 23.4691C19.7157 23.4569 20.3317 23.3388 20.9147 23.12C21.4128 22.9267 21.8651 22.6318 22.2429 22.254C22.6207 21.8762 22.9156 21.4239 23.1089 20.9258C23.328 20.3425 23.4455 19.7275 23.458 19.1033C23.4939 18.3016 23.5047 18.0475 23.5047 16.0116C23.503 13.9766 23.503 13.7183 23.4564 12.9208ZM15.9955 19.835C13.8672 19.835 12.143 18.1108 12.143 15.9825C12.143 13.8541 13.8672 12.13 15.9955 12.13C17.0173 12.13 17.9972 12.5359 18.7197 13.2583C19.4422 13.9808 19.848 14.9607 19.848 15.9825C19.848 17.0042 19.4422 17.9841 18.7197 18.7066C17.9972 19.4291 17.0173 19.835 15.9955 19.835ZM20.0014 12.8858C19.5039 12.8858 19.103 12.4841 19.103 11.9875C19.103 11.8695 19.1263 11.7528 19.1714 11.6438C19.2165 11.5349 19.2827 11.4359 19.366 11.3525C19.4494 11.2692 19.5484 11.203 19.6573 11.1579C19.7663 11.1128 19.883 11.0895 20.001 11.0895C20.1189 11.0895 20.2356 11.1128 20.3446 11.1579C20.4535 11.203 20.5525 11.2692 20.6359 11.3525C20.7193 11.4359 20.7854 11.5349 20.8305 11.6438C20.8757 11.7528 20.8989 11.8695 20.8989 11.9875C20.8989 12.4841 20.4972 12.8858 20.0014 12.8858Z" fill="white"/>
<path d="M15.9947 18.485C17.3768 18.485 18.4972 17.3646 18.4972 15.9825C18.4972 14.6004 17.3768 13.48 15.9947 13.48C14.6126 13.48 13.4922 14.6004 13.4922 15.9825C13.4922 17.3646 14.6126 18.485 15.9947 18.485Z" fill="white"/>
</svg>
