<svg width="68" height="68" viewBox="0 0 68 68" fill="none" xmlns="http://www.w3.org/2000/svg">
<path d="M22.402 52H13.6945V23.959H22.402V52ZM18.043 20.134C15.259 20.134 13 17.827 13 15.043C13 13.7055 13.5313 12.4228 14.4771 11.4771C15.4228 10.5313 16.7055 10 18.043 10C19.3805 10 20.6632 10.5313 21.6089 11.4771C22.5547 12.4228 23.086 13.7055 23.086 15.043C23.086 17.827 20.827 20.134 18.043 20.134ZM54.991 52H46.303V38.35C46.303 35.0965 46.237 30.925 41.776 30.925C37.249 30.925 36.5545 34.459 36.5545 38.116V52H27.856V23.959H36.2065V27.784H36.328C37.4905 25.5805 40.33 23.2555 44.566 23.2555C53.3785 23.2555 54.9985 29.059 54.9985 36.5965V52H54.991Z" fill="white"/>
</svg>
