<svg width="32" height="32" viewBox="0 0 32 32" fill="none" xmlns="http://www.w3.org/2000/svg">
<path d="M18.6673 2.66663L26.6673 10.6666V26.6666C26.6673 27.3739 26.3864 28.0521 25.8863 28.5522C25.3862 29.0523 24.7079 29.3333 24.0006 29.3333H8.00065C7.29341 29.3333 6.61513 29.0523 6.11503 28.5522C5.61494 28.0521 5.33398 27.3739 5.33398 26.6666V5.33329C5.33398 4.62605 5.61494 3.94777 6.11503 3.44767C6.61513 2.94758 7.29341 2.66663 8.00065 2.66663H18.6673ZM24.0006 26.6666V12H17.334V5.33329H8.00065V26.6666H24.0006ZM14.5606 16.4133C14.2406 15.3866 13.534 12.1066 15.4006 12.0533C17.2673 12 16.0406 16.2133 16.0406 16.2133C16.5606 18.2 18.734 19.6266 18.734 19.6266C19.4006 19.4266 23.2006 18.9866 22.6673 20.96C22.094 22.9333 18.0006 21.08 18.0006 21.08C15.4006 21.2666 13.454 21.96 13.454 21.96C11.9473 24.7733 10.1873 26 9.46732 24.8133C8.57398 23.3333 12.3073 21.4266 12.3073 21.4266C14.2406 18.2933 14.534 16.4666 14.5606 16.4133ZM15.4273 17.5333C14.894 19.2666 13.8273 21.12 13.8273 21.12C14.9606 20.6666 17.4406 20.1466 17.4406 20.1466C15.9206 18.8133 15.454 17.5466 15.4273 17.5333ZM19.614 20.4266C19.614 20.4266 21.9473 21.2933 22.0006 20.9466C22.094 20.5866 20.2273 20.2666 19.614 20.4266ZM12.0673 22.4133C11.0406 22.8133 10.054 24.52 10.294 24.52C10.534 24.5333 11.5073 23.72 12.0673 22.4133ZM15.4273 15.0133C15.4273 14.9466 16.0006 12.7733 15.4273 12.7066C15.0273 12.6666 15.414 14.96 15.4273 15.0133Z" fill="#004489"/>
</svg>
