<svg width="28" height="27" viewBox="0 0 28 27" fill="none" xmlns="http://www.w3.org/2000/svg">
<path d="M16.25 2.25L23 9V22.5C23 23.0967 22.7629 23.669 22.341 24.091C21.919 24.5129 21.3467 24.75 20.75 24.75H7.25C6.65326 24.75 6.08097 24.5129 5.65901 24.091C5.23705 23.669 5 23.0967 5 22.5V4.5C5 3.90326 5.23705 3.33097 5.65901 2.90901C6.08097 2.48705 6.65326 2.25 7.25 2.25H16.25ZM20.75 22.5V10.125H15.125V4.5H7.25V22.5H20.75ZM12.785 13.8488C12.515 12.9825 11.9187 10.215 13.4937 10.17C15.0687 10.125 14.0337 13.68 14.0337 13.68C14.4725 15.3563 16.3062 16.56 16.3062 16.56C16.8687 16.3913 20.075 16.02 19.625 17.685C19.1412 19.35 15.6875 17.7863 15.6875 17.7863C13.4937 17.9438 11.8512 18.5288 11.8512 18.5288C10.58 20.9025 9.095 21.9375 8.4875 20.9363C7.73375 19.6875 10.8837 18.0788 10.8837 18.0788C12.515 15.435 12.7625 13.8938 12.785 13.8488ZM13.5162 14.7938C13.0662 16.2563 12.1662 17.82 12.1662 17.82C13.1225 17.4375 15.215 16.9988 15.215 16.9988C13.9325 15.8738 13.5387 14.805 13.5162 14.7938ZM17.0487 17.235C17.0487 17.235 19.0175 17.9663 19.0625 17.6738C19.1412 17.37 17.5662 17.1 17.0487 17.235ZM10.6812 18.9113C9.815 19.2488 8.9825 20.6888 9.185 20.6888C9.3875 20.7 10.2087 20.0138 10.6812 18.9113ZM13.5162 12.6675C13.5162 12.6113 14 10.7775 13.5162 10.7213C13.1787 10.6875 13.505 12.6225 13.5162 12.6675Z" fill="#004489"/>
</svg>
